<?xml version="1.0" encoding="UTF-8"?>
<svg width="13px" height="16px" viewBox="0 0 13 16" version="1.1" xmlns="http://www.w3.org/2000/svg" xmlns:xlink="http://www.w3.org/1999/xlink">
    <!-- Generator: Sketch 49.1 (51147) - http://www.bohemiancoding.com/sketch -->
    <title>nav_tongzhi</title>
    <desc>Created with Sketch.</desc>
    <defs></defs>
    <g id="Page-1" stroke="none" stroke-width="1" fill="none" fill-rule="evenodd">
        <g id="反馈页面-1366" transform="translate(-1197.000000, -7.000000)" fill="#C0C4CC">
            <g id="导航栏">
                <path d="M1198.50002,18.0741089 L1198.50002,13.2592871 C1198.50002,10.9298162 1200.218,8.987092 1202.50002,8.54078059 L1202.50002,7.96294555 C1202.50002,7.43088893 1202.94748,7 1203.5,7 C1204.05252,7 1204.49998,7.43088893 1204.49998,7.96294555 L1204.49998,8.54078059 C1206.782,8.987092 1208.49998,10.9298162 1208.49998,13.2592871 L1208.49998,18.0741089 L1209.00147,18.0741089 C1209.55299,18.0741089 1210,18.5016124 1210,19.0370545 C1210,19.5691111 1209.55246,20 1209.00147,20 L1197.99853,20 C1197.44701,20 1197,19.5724965 1197,19.0370545 C1197,18.5049978 1197.44746,18.0741089 1197.99853,18.0741089 L1198.50002,18.0741089 Z M1205,21 C1205,22.1047252 1204.32847,23 1203.5,23 C1202.67146,23 1202,22.1047252 1202,21 L1205,21 Z" id="nav_tongzhi"></path>
            </g>
        </g>
    </g>
</svg>